<?xml version="1.0" encoding="iso-8859-1"?>
<!-- Generator: Adobe Illustrator 19.0.0, SVG Export Plug-In . SVG Version: 6.00 Build 0)  -->
<svg version="1.1" id="Capa_1" xmlns="http://www.w3.org/2000/svg" xmlns:xlink="http://www.w3.org/1999/xlink" x="0px" y="0px"
	 viewBox="0 0 512 512" style="enable-background:new 0 0 512 512;" xml:space="preserve">
<path style="fill:#880E48;" d="M435.649,362.292c-35.771,0-64.873-29.102-64.873-64.873s29.102-64.873,64.873-64.873
	s64.873,29.102,64.873,64.873S471.42,362.292,435.649,362.292z M435.649,262.487c-19.261,0-34.932,15.67-34.932,34.932
	c0,19.261,15.67,34.932,34.932,34.932c19.261,0,34.932-15.67,34.932-34.932C470.581,278.158,454.911,262.487,435.649,262.487z"/>
<path style="fill:#FF728B;" d="M285.942,462.097h-59.883c-63.287,0-114.776-51.488-114.776-114.776v-84.834h179.649v-29.942h109.786
	v114.776C400.717,410.609,349.229,462.097,285.942,462.097z"/>
<path style="fill:#EA348B;" d="M290.932,232.546v29.942H256v199.61h29.942c63.287,0,114.776-51.488,114.776-114.776V232.546H290.932
	z"/>
<path style="fill:#FF728B;" d="M295.922,262.487c-30.268,0-54.893-24.625-54.893-54.893v-29.942h29.942v29.942
	c0,13.758,11.193,24.951,24.951,24.951V262.487z"/>
<path style="fill:#EA348B;" d="M270.971,207.595v-29.942H256v67.558c10.016,10.624,24.203,17.276,39.922,17.276v-29.942
	C282.164,232.546,270.971,221.353,270.971,207.595z"/>
<path style="fill:#466288;" d="M511.501,512H0.499v-79.844h511.002V512z"/>
<g>
	<rect x="256" y="432.156" style="fill:#243145;" width="255.501" height="79.844"/>
	<path style="fill:#243145;" d="M270.971,179.649h-29.942c-19.261,0-34.932-15.67-34.932-34.932V99.805h99.805v44.912
		C305.903,163.979,290.232,179.649,270.971,179.649z"/>
</g>
<path style="fill:#121924;" d="M256,99.805v79.844h14.971c19.261,0,34.932-15.67,34.932-34.932V99.805H256z"/>
<path style="fill:#A3B1C4;" d="M511.501,104.795H0.499V24.951h511.002V104.795z"/>
<rect x="256" y="24.951" style="fill:#8799B3;" width="255.501" height="79.844"/>
<path style="fill:#466288;" d="M370.776,129.747H141.224V0h229.552V129.747z"/>
<rect x="256" style="fill:#243145;" width="114.776" height="129.747"/>
<g>
</g>
<g>
</g>
<g>
</g>
<g>
</g>
<g>
</g>
<g>
</g>
<g>
</g>
<g>
</g>
<g>
</g>
<g>
</g>
<g>
</g>
<g>
</g>
<g>
</g>
<g>
</g>
<g>
</g>
</svg>
